<svg width="45" height="45" viewBox="0 0 45 45" fill="none" xmlns="http://www.w3.org/2000/svg">
<g id="x-lg">
<path id="Union" d="M6.03688 8.02562C5.48771 7.47644 5.48771 6.58606 6.03688 6.03688C6.58606 5.48771 7.47645 5.48771 8.02562 6.03688L22.5 20.5113L36.9744 6.03688C37.5236 5.48771 38.4139 5.48771 38.9631 6.03688C39.5123 6.58606 39.5123 7.47644 38.9631 8.02562L24.4887 22.5L38.9631 36.9744C39.5123 37.5236 39.5123 38.4139 38.9631 38.9631C38.4139 39.5123 37.5236 39.5123 36.9744 38.9631L22.5 24.4887L8.02562 38.9631C7.47645 39.5123 6.58606 39.5123 6.03688 38.9631C5.48771 38.4139 5.48771 37.5236 6.03688 36.9744L20.5113 22.5L6.03688 8.02562Z" fill="black"/>
</g>
</svg>
