<svg width="30" height="30" viewBox="0 0 30 30" fill="none" xmlns="http://www.w3.org/2000/svg">
<path d="M17.2875 23.75C17.1008 23.7506 16.9163 23.7094 16.7475 23.6294C16.5788 23.5494 16.4302 23.4325 16.3125 23.2875L10.275 15.7875C10.0912 15.5638 9.99066 15.2833 9.99066 14.9938C9.99066 14.7042 10.0912 14.4237 10.275 14.2L16.525 6.70001C16.7372 6.44474 17.0421 6.28421 17.3726 6.25373C17.7031 6.22326 18.0323 6.32534 18.2875 6.53751C18.5428 6.74968 18.7033 7.05457 18.7338 7.3851C18.7643 7.71564 18.6622 8.04474 18.45 8.30001L12.8625 15L18.2625 21.7C18.4154 21.8835 18.5125 22.1069 18.5423 22.3439C18.5722 22.5808 18.5335 22.8213 18.431 23.037C18.3284 23.2526 18.1662 23.4344 17.9635 23.5608C17.7609 23.6871 17.5263 23.7528 17.2875 23.75Z" fill="black"/>
</svg>
