<?xml version="1.0" standalone="no"?>
<!DOCTYPE svg PUBLIC "-//W3C//DTD SVG 20010904//EN"
 "http://www.w3.org/TR/2001/REC-SVG-20010904/DTD/svg10.dtd">
<svg version="1.0" xmlns="http://www.w3.org/2000/svg"
 width="1140.000000pt" height="760.000000pt" viewBox="0 0 1140.000000 760.000000"
 preserveAspectRatio="xMidYMid meet">

<g transform="translate(0.000000,760.000000) scale(0.100000,-0.100000)"
fill="#000000" stroke="none">
<path d="M0 3800 l0 -3800 5700 0 5700 0 0 3800 0 3800 -4061 0 c-4052 0
-4061 0 -4066 -20 -3 -11 -10 -20 -15 -20 -5 0 -7 4 -3 9 3 5 1 12 -5 16 -5 3
-10 2 -10 -3 0 -5 -16 -9 -35 -7 -23 1 -34 -2 -32 -9 6 -14 -12 -30 -38 -34
-20 -3 -20 -2 -1 13 11 8 15 15 9 15 -7 0 -19 -7 -27 -16 -15 -14 -16 -12 -16
20 0 20 -4 36 -10 36 -6 0 -10 -33 -10 -80 0 -69 -2 -79 -14 -68 -8 8 -10 15
-4 19 5 4 8 17 6 30 -2 19 -9 24 -35 25 -18 1 -30 -3 -27 -8 3 -5 0 -15 -6
-23 -6 -8 -9 -19 -5 -25 3 -6 -3 -10 -14 -10 -14 0 -19 5 -15 15 6 16 -7 21
-20 8 -11 -11 -30 -10 -39 2 -5 6 -7 4 -5 -5 3 -8 14 -17 26 -20 21 -5 21 -5
-3 -17 -17 -7 -23 -8 -18 0 4 6 0 8 -9 4 -20 -7 -38 11 -30 32 5 14 4 14 -11
-1 -21 -20 -22 -38 -3 -38 15 0 32 -37 22 -48 -3 -3 -13 3 -21 14 -14 18 -16
18 -26 1 -7 -13 -17 -16 -32 -11 -20 6 -20 5 3 -15 22 -18 23 -20 5 -18 -11 1
-26 6 -34 11 -10 7 -12 4 -6 -13 7 -24 -12 -29 -34 -8 -11 10 -12 7 -5 -13 4
-14 7 -35 6 -47 -1 -13 3 -23 9 -23 5 0 8 -4 4 -10 -3 -5 -12 -7 -20 -3 -28
10 -15 -16 15 -32 34 -18 40 -30 10 -20 -12 4 -20 2 -20 -5 0 -6 -5 -8 -11 -4
-8 5 -8 8 0 13 7 5 3 15 -14 31 -14 13 -25 18 -25 12 0 -7 -4 -12 -8 -12 -5 0
-9 7 -9 14 0 8 5 14 11 13 6 -1 9 7 8 17 -3 17 -2 18 12 7 10 -8 16 -9 16 -3
0 17 -20 25 -34 13 -8 -7 -18 -11 -22 -10 -21 3 -34 -2 -34 -14 0 -7 -9 -13
-20 -13 -11 0 -20 4 -20 9 0 4 -5 5 -10 2 -14 -9 6 -35 23 -31 7 1 9 1 4 -1
-4 -3 -5 -9 -2 -13 3 -5 1 -11 -5 -15 -5 -3 -10 -2 -10 4 0 6 -10 15 -23 21
-20 10 -20 10 -5 -3 20 -16 14 -29 -10 -20 -12 5 -14 1 -9 -16 4 -18 3 -20 -9
-11 -10 9 -11 17 -3 31 8 15 6 19 -7 19 -9 0 -14 -6 -11 -13 6 -16 -25 -19
-34 -4 -4 5 -16 4 -30 -4 -29 -16 -61 -18 -71 -4 -5 6 -12 4 -18 -5 -9 -13
-11 -13 -20 0 -7 12 -9 10 -7 -7 1 -17 5 -20 17 -13 18 9 60 3 60 -9 0 -16
-14 -20 -27 -10 -9 8 -13 8 -13 1 0 -6 -7 -9 -15 -6 -8 4 -23 0 -32 -7 -15
-12 -16 -12 -10 3 5 15 4 16 -13 6 -19 -12 -19 -13 -1 -20 10 -3 22 -12 26
-18 6 -9 2 -9 -14 -1 -19 11 -25 8 -22 -11 0 -4 -6 -5 -15 -1 -13 5 -13 7 -2
14 11 7 11 9 -1 9 -8 0 -11 6 -7 16 3 8 2 12 -4 9 -6 -3 -10 -13 -10 -21 0 -8
-7 -14 -15 -14 -8 0 -12 6 -9 13 3 8 -3 20 -13 27 -15 12 -16 12 -5 0 17 -20
15 -30 -5 -23 -16 6 -16 5 -4 -10 7 -9 10 -17 7 -17 -10 0 -36 27 -31 31 2 2
-8 4 -21 4 l-25 0 28 -24 c15 -13 22 -20 15 -16 -7 4 -20 1 -28 -6 -12 -9 -13
-9 -9 2 3 8 -5 20 -17 28 -21 13 -22 13 -10 -1 10 -13 10 -17 -4 -22 -23 -9
-31 -7 -14 4 10 6 11 10 3 10 -7 0 -13 6 -13 13 0 7 -9 13 -19 13 -16 0 -17
-4 -10 -26 l9 -25 -20 25 -20 25 0 -22 c0 -13 5 -23 10 -23 6 0 10 -4 10 -10
0 -10 -50 8 -60 21 -3 4 -14 1 -24 -7 -17 -12 -17 -16 -5 -31 12 -15 12 -16
-3 -10 -9 3 -19 3 -21 -1 -2 -4 -2 -2 -1 5 4 16 -23 36 -36 28 -8 -5 -7 -11 1
-22 11 -12 8 -13 -17 -8 -23 5 -26 4 -14 -5 12 -9 10 -11 -11 -6 -20 4 -29 0
-39 -19 -7 -14 -17 -25 -21 -25 -4 0 -15 -7 -23 -16 -15 -14 -16 -12 -16 18 1
28 2 31 13 17 10 -14 14 -14 25 -3 23 25 14 35 -25 29 -61 -10 -67 -13 -54
-29 11 -13 5 -26 -11 -26 -5 0 -6 5 -3 10 3 6 2 10 -3 10 -6 0 -12 -7 -16 -15
-6 -16 -36 -10 -36 7 0 6 6 5 15 -2 12 -10 15 -10 15 4 0 9 -6 17 -12 18 -7 0
-17 2 -23 2 -5 1 -16 5 -24 10 -9 6 -12 5 -9 -5 3 -8 -2 -20 -9 -28 -12 -11
-16 -11 -27 5 -11 14 -17 16 -28 7 -8 -7 -19 -8 -28 -3 -9 6 -18 5 -23 -3 -5
-7 -6 -4 -3 8 5 17 1 20 -29 21 -24 0 -32 -3 -25 -10 15 -15 12 -24 -9 -31
-14 -4 -18 -12 -14 -23 5 -14 4 -15 -8 -4 -12 11 -11 16 6 29 18 14 18 15 2 9
-10 -3 -22 -6 -27 -6 -5 0 -12 -9 -15 -20 -8 -27 -17 -25 -50 8 l-28 27 6 -26
c5 -19 2 -29 -8 -32 -9 -4 -12 -1 -8 9 3 7 1 14 -5 14 -6 0 -7 13 -2 34 6 26
4 36 -7 40 -9 4 -11 2 -7 -6 5 -8 2 -9 -9 -5 -10 3 -17 2 -17 -3 0 -6 7 -10
15 -10 9 0 15 -9 15 -21 0 -13 -5 -19 -16 -17 -8 2 -15 6 -15 11 1 12 -33 44
-43 39 -5 -3 -2 -9 7 -13 22 -13 10 -49 -17 -48 -15 1 -17 3 -4 6 9 2 19 11
22 19 4 12 1 14 -14 9 -11 -3 -32 -8 -47 -11 -26 -4 -27 -3 -9 10 10 8 16 21
13 28 -4 10 -6 10 -6 1 -1 -7 -8 -13 -16 -13 -9 0 -12 6 -9 15 3 8 -1 22 -10
30 -15 15 -16 15 -16 -6 0 -18 -2 -19 -15 -9 -13 10 -15 9 -15 -9 0 -12 5 -31
10 -42 7 -12 7 -19 1 -19 -5 0 -12 -8 -14 -17 -5 -18 -11 313 -7 372 1 17 5
33 8 36 7 7 91 17 842 99 913 101 879 97 789 99 -69 1 -240 -17 -899 -94 -69
-8 -251 -28 -405 -45 -154 -16 -292 -32 -307 -35 l-28 -4 0 84 c0 109 -17 111
-19 3 -1 -45 -3 -83 -4 -84 -4 -4 -191 -24 -265 -29 -60 -4 -70 -2 -60 9 9 10
17 10 29 3 13 -8 24 -6 44 7 15 10 23 21 19 24 -3 4 -9 1 -11 -5 -6 -16 -53
-17 -53 -2 0 5 -4 8 -9 5 -4 -3 -6 6 -3 21 4 19 2 24 -8 18 -8 -5 -11 -3 -8 6
3 9 20 14 49 13 l44 -1 -33 14 c-18 7 -30 18 -27 23 4 6 3 10 -2 9 -20 -3 -34
2 -28 11 4 6 10 8 15 5 4 -3 13 2 19 9 8 10 9 16 1 21 -5 3 -10 1 -10 -4 0 -6
-9 -11 -20 -11 -13 0 -18 5 -14 15 4 10 0 15 -15 15 -12 0 -21 -4 -21 -10 0
-5 -5 -10 -11 -10 -5 0 -7 5 -4 10 4 7 -102 10 -309 10 l-316 0 0 -3800z
m3050 3705 c7 -8 8 -15 2 -15 -5 0 -15 7 -22 15 -7 8 -8 15 -2 15 5 0 15 -7
22 -15z m61 -43 c-9 -25 -9 -24 -10 18 0 36 2 41 10 27 7 -12 7 -27 0 -45z
m-86 18 c3 -5 2 -10 -4 -10 -5 0 -13 5 -16 10 -3 6 -2 10 4 10 5 0 13 -4 16
-10z m-72 -57 c-5 -13 -2 -15 12 -10 15 6 16 5 5 -8 -12 -15 -14 -15 -22 -1
-5 9 -6 21 -3 26 10 16 15 12 8 -7z m127 -14 c0 -11 -4 -17 -10 -14 -5 3 -10
13 -10 21 0 8 5 14 10 14 6 0 10 -9 10 -21z m-156 -21 c-3 -5 -12 -2 -20 6
-20 21 -17 28 5 14 11 -7 17 -16 15 -20z m-1915 -128 c0 -140 0 -141 -22 -134
-29 9 -65 34 -49 34 7 0 10 5 7 10 -5 8 -11 8 -20 0 -13 -11 -14 -34 -2 -46 4
-4 7 -12 7 -17 0 -6 -11 0 -25 13 -29 27 -34 17 -7 -14 16 -20 16 -20 0 -7
-14 11 -18 11 -18 1 0 -9 -5 -8 -18 3 -23 21 -36 22 -28 1 3 -9 2 -12 -5 -9
-6 4 -8 14 -5 22 4 11 2 13 -9 9 -9 -3 -15 0 -15 9 0 20 19 19 42 -2 10 -9 21
-14 24 -10 9 9 12 57 3 51 -5 -3 -9 -1 -9 5 0 5 5 13 10 16 6 3 10 11 10 17 0
6 -9 3 -20 -7 -15 -14 -17 -22 -9 -37 6 -11 8 -22 5 -25 -3 -3 -8 2 -12 11 -3
9 -15 16 -25 16 -11 0 -19 7 -19 16 0 9 6 14 13 11 16 -6 41 29 27 38 -6 3
-10 -1 -10 -9 0 -9 -5 -16 -12 -16 -6 0 -19 -7 -28 -15 -16 -14 -18 -14 -24 0
-3 9 -2 14 3 11 11 -7 27 11 40 46 8 21 6 29 -6 40 -10 8 -14 8 -10 1 4 -6 3
-15 -3 -18 -8 -5 -8 -11 0 -20 9 -10 6 -16 -10 -25 -20 -11 -21 -10 -10 12 10
19 10 21 -1 11 -7 -7 -18 -13 -23 -13 -6 1 -2 8 10 18 25 22 39 63 17 55 -8
-3 -21 4 -30 16 -8 12 -21 20 -29 17 -8 -3 -14 -1 -14 3 0 5 30 14 68 20 129
20 187 29 215 30 l27 1 -1 -140z m1841 133 c0 -5 -5 -15 -10 -23 -7 -12 -9
-10 -7 8 1 19 17 33 17 15z m270 3 c0 -3 -4 -8 -10 -11 -5 -3 -10 -1 -10 4 0
6 5 11 10 11 6 0 10 -2 10 -4z m-230 -60 c0 -5 -7 -1 -15 10 -8 10 -14 24 -14
29 0 6 6 1 14 -9 8 -11 15 -24 15 -30z m45 24 c3 -5 1 -10 -4 -10 -6 0 -11 5
-11 10 0 6 2 10 4 10 3 0 8 -4 11 -10z m-2251 -7 c-5 -5 -12 -12 -16 -18 -4
-6 -8 -2 -8 8 0 9 7 17 17 17 9 0 12 -3 7 -7z m2113 -25 c-3 -8 -6 -5 -6 6 -1
11 2 17 5 13 3 -3 4 -12 1 -19z m52 6 c7 5 9 1 5 -9 -8 -21 -28 -14 -32 11 -2
15 -1 16 6 5 6 -7 15 -11 21 -7z m-2124 -31 c-5 -10 -7 -22 -6 -28 1 -5 -4 -4
-11 4 -10 11 -10 14 0 18 6 3 12 12 12 21 0 8 3 13 6 9 4 -3 3 -14 -1 -24z
m2055 23 c0 -2 -9 -6 -20 -9 -11 -3 -18 -1 -14 4 5 9 34 13 34 5z m45 -25 c3
-5 1 -12 -5 -16 -5 -3 -10 1 -10 9 0 18 6 21 15 7z m-49 -16 c17 -16 14 -18
-10 -9 -9 3 -16 10 -16 15 0 13 9 11 26 -6z m84 -5 c0 -5 -5 -10 -11 -10 -5 0
-7 5 -4 10 3 6 8 10 11 10 2 0 4 -4 4 -10z m-215 -21 c-5 -26 -13 -35 -22 -25
-4 4 -1 11 7 16 8 6 11 10 7 10 -5 0 -5 5 -2 10 10 16 14 11 10 -11z m155 -33
c0 -3 -4 -8 -10 -11 -5 -3 -10 -1 -10 4 0 6 5 11 10 11 6 0 10 -2 10 -4z
m-290 -43 c0 -4 -3 -3 -7 0 -3 4 -15 -1 -25 -10 -16 -15 -18 -15 -13 -1 4 9 2
19 -4 23 -6 3 -11 1 -11 -4 0 -6 -10 -11 -22 -10 l-23 0 23 11 c12 6 22 15 22
19 0 4 14 1 30 -7 17 -9 30 -18 30 -21z m-1725 -23 c3 -6 -1 -7 -9 -4 -18 7
-21 14 -7 14 6 0 13 -4 16 -10z m1775 0 c0 -5 -2 -10 -4 -10 -3 0 -8 5 -11 10
-3 6 -1 10 4 10 6 0 11 -4 11 -10z m-110 -10 c0 -5 -7 -10 -16 -10 -8 0 -12 5
-9 10 3 6 10 10 16 10 5 0 9 -4 9 -10z m-100 -4 c0 -11 -19 -15 -25 -6 -3 5 1
10 9 10 9 0 16 -2 16 -4z m-366 -67 c-6 -11 -24 -2 -24 11 0 5 7 7 15 4 8 -4
12 -10 9 -15z m211 1 c3 -5 1 -10 -4 -10 -6 0 -11 5 -11 10 0 6 2 10 4 10 3 0
8 -4 11 -10z m-465 -40 c0 -5 -2 -10 -4 -10 -3 0 -8 5 -11 10 -3 6 -1 10 4 10
6 0 11 -4 11 -10z m-640 -25 c14 -19 14 -19 -2 -6 -10 7 -18 18 -18 24 0 6 1
8 3 6 1 -2 9 -13 17 -24z m135 -16 c11 -17 -1 -21 -15 -4 -8 9 -8 15 -2 15 6
0 14 -5 17 -11z m375 -4 c-7 -8 -17 -15 -22 -15 -6 0 -5 7 2 15 7 8 17 15 22
15 6 0 5 -7 -2 -15z m-446 -51 c3 -8 2 -12 -4 -9 -6 3 -10 10 -10 16 0 14 7
11 14 -7z m2871 -1885 c94 -2 192 -27 248 -63 24 -17 41 -46 17 -31 -5 3 -10
4 -10 1 0 -3 10 -10 21 -17 17 -9 20 -8 14 2 -5 8 -4 10 4 5 6 -4 9 -11 7 -15
-3 -4 15 -27 40 -51 50 -49 87 -105 114 -179 11 -27 60 -280 111 -562 104
-580 110 -647 69 -754 -16 -40 -40 -76 -75 -111 -44 -44 -65 -56 -126 -75
l-73 -22 -533 37 c-294 21 -546 41 -561 45 -15 4 -41 26 -58 48 -33 43 -32 40
-69 313 -53 398 -65 495 -70 580 -4 52 -14 122 -22 155 -8 33 -16 111 -17 173
-1 103 1 115 19 128 11 8 20 20 20 26 0 16 73 22 89 9 7 -6 16 -32 19 -59 33
-254 168 -1156 176 -1169 6 -10 11 -13 11 -7 1 34 86 40 305 20 28 -3 97 -7
155 -10 58 -3 137 -8 175 -11 243 -17 253 -17 269 7 9 12 16 37 16 55 0 31 -9
44 -52 79 -8 6 -74 14 -148 18 -673 35 -674 35 -707 76 -10 13 -23 68 -28 125
-1 11 -5 36 -9 55 -7 40 -7 40 -35 250 -39 299 -50 386 -56 450 -4 36 -9 68
-11 71 -2 4 -6 37 -9 75 -3 38 -10 105 -16 148 -9 69 -8 85 7 117 9 21 24 41
33 44 69 28 233 33 746 24z m1770 -78 c28 -9 49 -21 47 -25 -2 -4 14 -21 36
-37 96 -71 148 -218 122 -345 -26 -127 -88 -207 -188 -245 -82 -30 -208 -24
-275 13 -26 15 -44 21 -41 15 4 -7 -10 4 -30 23 -43 40 -65 80 -100 177 -24
63 -24 69 -10 122 8 30 17 76 20 101 9 67 34 101 119 160 83 57 207 74 300 41z
m710 -15 c30 -14 55 -28 55 -31 0 -3 -6 -3 -12 1 -7 4 6 -10 29 -30 134 -118
151 -375 33 -509 -103 -116 -303 -141 -432 -53 -20 13 -38 22 -41 20 -10 -10
-77 81 -92 125 -9 25 -19 96 -22 157 -5 102 -4 116 16 158 25 51 98 128 145
152 96 50 225 54 321 10z m-1290 11 c11 -5 41 -31 67 -57 69 -69 78 -154 23
-226 l-26 -34 35 -35 c64 -64 59 -168 -13 -237 -51 -48 -91 -58 -246 -58 -144
0 -170 8 -195 55 -8 17 -19 33 -23 36 -5 3 -8 108 -7 233 1 274 8 302 87 326
39 12 274 10 298 -3z m1661 4 c-3 -5 5 -12 19 -15 36 -9 49 -41 55 -131 l5
-80 29 45 c65 102 173 190 233 190 18 0 33 -3 33 -8 0 -4 10 -12 22 -17 32
-14 51 -57 39 -88 -6 -14 -51 -71 -100 -126 -50 -56 -91 -105 -91 -109 1 -4
11 -19 23 -33 179 -210 187 -222 187 -262 0 -52 -89 -93 -140 -63 -14 8 -35
20 -47 25 -12 6 -56 51 -99 101 -42 49 -81 90 -85 90 -5 0 -9 -32 -9 -70 0
-91 -17 -125 -69 -141 -51 -15 -81 -7 -125 36 l-36 35 -1 157 c-1 87 -3 201
-5 253 -4 108 13 160 61 198 27 22 113 32 101 13z m-874 -924 l57 -25 53 20
c48 18 71 20 263 16 174 -3 215 -6 240 -20 17 -10 26 -17 21 -18 -5 0 3 -11
18 -25 28 -26 35 -70 16 -105 -14 -26 -74 -41 -137 -33 l-53 6 0 -216 c0 -119
-4 -227 -10 -241 -17 -45 -95 -70 -141 -46 -23 13 -63 74 -72 110 -9 37 -11
281 -2 313 4 16 2 40 -5 57 -12 28 -16 30 -64 30 -38 0 -58 5 -72 19 -19 18
-20 18 -47 -5 -33 -28 -63 -30 -131 -9 -93 28 -142 15 -134 -37 3 -20 9 -23
58 -25 62 -3 152 -33 190 -64 19 -16 20 -19 6 -15 -14 5 -10 -2 12 -25 49 -50
63 -147 29 -214 -50 -102 -213 -143 -370 -95 -119 37 -155 93 -107 165 11 17
20 26 20 21 0 -6 5 -5 12 2 13 13 58 17 58 5 0 -9 43 -15 110 -17 39 -1 45 2
46 20 1 18 -9 25 -60 39 -135 40 -194 98 -203 203 -3 33 -1 74 6 94 15 46 86
113 141 132 66 24 179 16 252 -17z m1125 -45 c29 -15 52 -31 52 -36 -1 -4 17
-27 39 -50 23 -22 54 -68 69 -101 25 -54 28 -70 27 -165 0 -84 -4 -114 -21
-151 -62 -136 -204 -208 -358 -182 -81 14 -135 41 -200 101 -62 57 -79 82
-106 152 -31 81 -28 167 7 228 15 26 41 73 56 104 16 31 41 66 56 76 108 76
261 85 379 24z m681 -16 c49 -18 127 -93 148 -142 18 -43 18 -145 0 -188 -8
-18 -32 -50 -55 -71 l-41 -39 24 -25 c34 -37 87 -147 88 -184 2 -59 -80 -93
-147 -61 -55 26 -90 66 -130 150 -26 54 -44 78 -62 85 -36 13 -43 0 -43 -88 0
-39 -3 -79 -6 -88 -10 -24 -58 -45 -105 -45 -35 0 -47 6 -80 40 l-39 40 -2
143 c0 78 -2 153 -4 167 -19 181 7 283 80 316 43 20 312 13 374 -10z m644 -11
c43 -4 100 -32 120 -60 4 -5 8 -27 8 -47 0 -28 -6 -42 -26 -57 -24 -19 -40
-21 -160 -21 l-134 0 0 -42 0 -43 120 0 119 0 30 -35 c40 -47 42 -100 5 -129
-23 -18 -41 -21 -135 -21 -59 0 -114 -3 -123 -6 -11 -4 -16 -19 -16 -50 0 -41
1 -43 23 -35 48 17 275 -7 262 -28 -2 -5 4 -16 15 -26 14 -13 20 -31 20 -61 0
-58 -29 -78 -108 -76 -145 3 -320 14 -348 23 -35 11 -79 55 -96 97 -7 17 -10
80 -8 167 1 77 3 187 4 245 1 58 4 112 7 121 13 45 66 83 129 92 28 4 220 -1
292 -8z"/>
<path d="M740 7351 c0 -15 16 -22 34 -15 9 3 13 11 10 16 -4 6 -10 5 -15 -3
-6 -10 -9 -11 -9 -1 0 6 -4 12 -10 12 -5 0 -10 -4 -10 -9z"/>
<path d="M800 7350 c0 -5 5 -10 11 -10 5 0 7 5 4 10 -3 6 -8 10 -11 10 -2 0
-4 -4 -4 -10z"/>
<path d="M830 7331 c0 -6 4 -13 10 -16 6 -3 7 1 4 9 -7 18 -14 21 -14 7z"/>
<path d="M830 7259 c0 -5 4 -8 9 -4 6 3 15 -3 21 -12 11 -17 11 -17 6 0 -3 10
-6 21 -6 23 0 2 -7 4 -15 4 -8 0 -15 -5 -15 -11z"/>
<path d="M891 7166 c-9 -10 -8 -15 2 -19 8 -3 13 3 13 14 0 23 0 23 -15 5z"/>
<path d="M5627 4790 c-14 -11 -31 -36 -37 -56 -17 -50 -9 -174 12 -207 l18
-26 51 15 c29 9 59 22 67 30 17 17 26 67 27 144 0 100 -72 152 -138 100z"/>
<path d="M6292 4785 c-56 -47 -69 -195 -23 -268 11 -17 21 -27 21 -22 0 6 17
10 38 8 82 -4 122 53 122 175 0 39 -6 56 -32 90 -39 51 -79 56 -126 17z"/>
<path d="M5030 4776 l0 -45 45 16 c25 8 45 21 45 28 0 34 -13 45 -51 45 l-39
0 0 -44z"/>
<path d="M5030 4531 l0 -49 40 12 c22 6 47 19 55 27 24 24 -11 59 -59 59 l-36
0 0 -49z"/>
<path d="M6895 3824 c-13 -14 -29 -42 -36 -61 -15 -46 -7 -149 15 -194 19 -40
21 -40 131 -23 46 6 69 56 68 149 0 107 -34 155 -109 155 -36 0 -50 -5 -69
-26z"/>
<path d="M7596 3814 c-7 -20 -8 -68 -1 -87 5 -11 16 -12 58 -4 68 13 94 36 77
68 -18 34 -29 39 -81 39 -34 0 -49 -5 -53 -16z"/>
<path d="M717 7463 c10 -29 14 -34 23 -28 6 4 4 14 -3 25 -15 25 -29 26 -20 3z"/>
<path d="M2790 7471 c0 -6 5 -11 11 -11 5 0 7 -4 4 -10 -3 -5 -1 -10 4 -10 16
0 13 16 -4 30 -10 9 -15 9 -15 1z"/>
<path d="M790 7429 c0 -5 5 -7 10 -4 6 3 10 8 10 11 0 2 -4 4 -10 4 -5 0 -10
-5 -10 -11z"/>
<path d="M2680 7336 c0 -9 30 -14 35 -6 4 6 -3 10 -14 10 -12 0 -21 -2 -21 -4z"/>
<path d="M2515 7300 c3 -5 8 -10 11 -10 2 0 4 5 4 10 0 6 -5 10 -11 10 -5 0
-7 -4 -4 -10z"/>
<path d="M2314 7234 c-18 -14 -18 -14 6 -3 31 14 36 19 24 19 -6 0 -19 -7 -30
-16z"/>
<path d="M1930 7150 c8 -5 20 -10 25 -10 6 0 3 5 -5 10 -8 5 -19 10 -25 10 -5
0 -3 -5 5 -10z"/>
<path d="M1900 7141 c0 -10 19 -25 25 -20 1 2 -3 10 -11 17 -8 7 -14 8 -14 3z"/>
<path d="M1774 7098 c-4 -7 -3 -8 4 -4 7 4 12 2 12 -3 0 -6 7 -11 16 -11 14 0
14 3 4 15 -15 18 -26 19 -36 3z"/>
<path d="M1480 7092 c0 -5 7 -9 15 -9 8 0 15 4 15 9 0 4 -7 8 -15 8 -8 0 -15
-4 -15 -8z"/>
<path d="M1513 7072 c-20 -16 -20 -18 -5 -32 14 -13 15 -12 9 3 -4 11 1 22 16
32 12 8 17 15 12 15 -6 0 -20 -8 -32 -18z"/>
<path d="M1540 7061 c0 -5 7 -11 14 -14 10 -4 13 -1 9 9 -6 15 -23 19 -23 5z"/>
<path d="M1670 7054 c0 -8 5 -12 10 -9 6 3 10 10 10 16 0 5 -4 9 -10 9 -5 0
-10 -7 -10 -16z"/>
<path d="M1334 7035 c3 -8 1 -15 -3 -15 -5 0 -12 6 -14 13 -3 6 -6 8 -6 2 0
-5 4 -17 9 -25 9 -13 11 -13 20 0 13 20 13 40 -1 40 -6 0 -9 -7 -5 -15z"/>
</g>
</svg>
