<svg width="270" height="96" viewBox="0 0 270 96" fill="none" xmlns="http://www.w3.org/2000/svg">
<path d="M0.0265198 30.2748L1.06011 24.6251C1.20194 23.8499 1.87687 23.2875 2.66348 23.2875C2.66674 23.2875 2.66837 23.2875 2.67163 23.2875C3.46231 23.2908 4.1348 23.8605 4.27011 24.639L13.5683 78.2096L60.9562 78.2113C62.0917 78.2113 63.1424 77.7417 63.9176 76.8899C64.8061 75.9109 65.3009 74.451 65.1818 73.1998C64.8346 70.1846 62.6549 67.9952 60.0025 67.9952H20.4554C19.6607 67.9952 18.9808 67.4221 18.8488 66.6372L9.59049 11.9025C9.5106 11.4289 9.64266 10.9447 9.95322 10.5779C10.2622 10.2111 10.7178 10 11.1971 10H50.7132C59.7278 10 68.528 17.3313 70.3319 26.3369L78.775 67.6781C79.5347 72.5184 78.3561 77.0684 75.4558 80.4928C72.6077 83.8552 68.4318 85.7072 63.6967 85.7072L62.9419 85.7048C62.9272 85.7048 62.9133 85.7056 62.897 85.7056C60.375 85.708 12.1427 85.7113 11.6397 85.7113C9.81465 85.7113 8.25938 84.4038 7.93658 82.5673L0.0191879 30.8128C-0.00934601 30.6351 -0.00527191 30.4517 0.0265198 30.2748Z" fill="white"/>
<path d="M98.4 41C97.1467 41 96.1867 40.68 95.52 40.04C94.88 39.3733 94.56 38.4267 94.56 37.2V16.6C94.56 15.3733 94.88 14.44 95.52 13.8C96.1867 13.1333 97.1467 12.8 98.4 12.8H108.16C110.187 12.8 111.907 13.1067 113.32 13.72C114.76 14.3067 115.853 15.1467 116.6 16.24C117.347 17.3333 117.72 18.6133 117.72 20.08C117.72 21.7333 117.24 23.1467 116.28 24.32C115.347 25.4933 114.067 26.2933 112.44 26.72V26.08C114.36 26.4267 115.84 27.2 116.88 28.4C117.947 29.6 118.48 31.1333 118.48 33C118.48 35.48 117.587 37.44 115.8 38.88C114.04 40.2933 111.627 41 108.56 41H98.4ZM101.6 35.6H107.56C108.92 35.6 109.907 35.3467 110.52 34.84C111.16 34.3067 111.48 33.52 111.48 32.48C111.48 31.44 111.16 30.6667 110.52 30.16C109.907 29.6533 108.92 29.4 107.56 29.4H101.6V35.6ZM101.6 24H106.84C108.173 24 109.147 23.76 109.76 23.28C110.4 22.8 110.72 22.0667 110.72 21.08C110.72 20.0933 110.4 19.3733 109.76 18.92C109.147 18.44 108.173 18.2 106.84 18.2H101.6V24ZM136.246 41.44C133.393 41.44 130.886 40.84 128.726 39.64C126.566 38.4133 124.886 36.7067 123.686 34.52C122.513 32.3333 121.926 29.7867 121.926 26.88C121.926 24.6933 122.259 22.7067 122.926 20.92C123.619 19.1333 124.593 17.6 125.846 16.32C127.126 15.04 128.646 14.0667 130.406 13.4C132.166 12.7067 134.113 12.36 136.246 12.36C139.099 12.36 141.593 12.96 143.726 14.16C145.886 15.36 147.566 17.0533 148.766 19.24C149.966 21.4 150.566 23.9467 150.566 26.88C150.566 29.0667 150.219 31.0533 149.526 32.84C148.859 34.6267 147.886 36.1733 146.606 37.48C145.353 38.76 143.846 39.7467 142.086 40.44C140.326 41.1067 138.379 41.44 136.246 41.44ZM136.246 35.28C137.659 35.28 138.859 34.9467 139.846 34.28C140.833 33.6133 141.593 32.6533 142.126 31.4C142.659 30.1467 142.926 28.64 142.926 26.88C142.926 24.24 142.339 22.1867 141.166 20.72C139.993 19.2533 138.353 18.52 136.246 18.52C134.859 18.52 133.659 18.8533 132.646 19.52C131.659 20.16 130.899 21.1067 130.366 22.36C129.833 23.5867 129.566 25.0933 129.566 26.88C129.566 29.52 130.153 31.5867 131.326 33.08C132.499 34.5467 134.139 35.28 136.246 35.28ZM168.512 41.44C165.658 41.44 163.152 40.84 160.992 39.64C158.832 38.4133 157.152 36.7067 155.952 34.52C154.778 32.3333 154.192 29.7867 154.192 26.88C154.192 24.6933 154.525 22.7067 155.192 20.92C155.885 19.1333 156.858 17.6 158.112 16.32C159.392 15.04 160.912 14.0667 162.672 13.4C164.432 12.7067 166.378 12.36 168.512 12.36C171.365 12.36 173.858 12.96 175.992 14.16C178.152 15.36 179.832 17.0533 181.032 19.24C182.232 21.4 182.832 23.9467 182.832 26.88C182.832 29.0667 182.485 31.0533 181.792 32.84C181.125 34.6267 180.152 36.1733 178.872 37.48C177.618 38.76 176.112 39.7467 174.352 40.44C172.592 41.1067 170.645 41.44 168.512 41.44ZM168.512 35.28C169.925 35.28 171.125 34.9467 172.112 34.28C173.098 33.6133 173.858 32.6533 174.392 31.4C174.925 30.1467 175.192 28.64 175.192 26.88C175.192 24.24 174.605 22.1867 173.432 20.72C172.258 19.2533 170.618 18.52 168.512 18.52C167.125 18.52 165.925 18.8533 164.912 19.52C163.925 20.16 163.165 21.1067 162.632 22.36C162.098 23.5867 161.832 25.0933 161.832 26.88C161.832 29.52 162.418 31.5867 163.592 33.08C164.765 34.5467 166.405 35.28 168.512 35.28ZM190.857 41.36C189.684 41.36 188.777 41.04 188.137 40.4C187.497 39.7333 187.177 38.8133 187.177 37.64V16.16C187.177 14.9333 187.497 14.0133 188.137 13.4C188.777 12.76 189.684 12.44 190.857 12.44C192.057 12.44 192.964 12.76 193.577 13.4C194.217 14.0133 194.537 14.9333 194.537 16.16V24.88H194.617L204.337 14.16C204.844 13.6267 205.377 13.2133 205.937 12.92C206.524 12.6 207.177 12.44 207.897 12.44C209.017 12.44 209.817 12.7333 210.297 13.32C210.804 13.88 211.031 14.5467 210.977 15.32C210.951 16.0667 210.644 16.76 210.057 17.4L200.377 27.68V24.68L210.537 36.16C211.231 36.9333 211.577 37.7333 211.577 38.56C211.577 39.36 211.297 40.0267 210.737 40.56C210.204 41.0933 209.404 41.36 208.337 41.36C207.431 41.36 206.697 41.1867 206.137 40.84C205.604 40.4667 205.017 39.92 204.377 39.2L194.617 28.28H194.537V37.64C194.537 38.8133 194.231 39.7333 193.617 40.4C193.004 41.04 192.084 41.36 190.857 41.36Z" fill="white"/>
<path d="M144.04 82.44C142.973 82.44 141.853 82.36 140.68 82.2C139.533 82.0667 138.44 81.8533 137.4 81.56C136.36 81.2667 135.427 80.92 134.6 80.52C133.88 80.1733 133.373 79.72 133.08 79.16C132.787 78.5733 132.68 77.96 132.76 77.32C132.84 76.68 133.067 76.12 133.44 75.64C133.813 75.1333 134.307 74.8 134.92 74.64C135.533 74.4533 136.227 74.5333 137 74.88C138.013 75.36 139.16 75.7333 140.44 76C141.72 76.2667 142.92 76.4 144.04 76.4C145.8 76.4 147.027 76.1733 147.72 75.72C148.44 75.24 148.8 74.6533 148.8 73.96C148.8 73.3467 148.547 72.8533 148.04 72.48C147.56 72.1067 146.693 71.7867 145.44 71.52L140.76 70.52C138.2 69.9867 136.293 69.0533 135.04 67.72C133.787 66.3867 133.16 64.6667 133.16 62.56C133.16 61.1733 133.44 59.92 134 58.8C134.587 57.6533 135.4 56.68 136.44 55.88C137.507 55.08 138.76 54.4667 140.2 54.04C141.667 53.5867 143.293 53.36 145.08 53.36C146.467 53.36 147.867 53.52 149.28 53.84C150.72 54.1333 151.96 54.5867 153 55.2C153.613 55.52 154.053 55.96 154.32 56.52C154.587 57.08 154.693 57.6667 154.64 58.28C154.587 58.8667 154.373 59.3867 154 59.84C153.653 60.2933 153.173 60.6 152.56 60.76C151.973 60.8933 151.267 60.7867 150.44 60.44C149.667 60.0933 148.787 59.84 147.8 59.68C146.84 59.4933 145.907 59.4 145 59.4C144.013 59.4 143.173 59.52 142.48 59.76C141.787 59.9733 141.253 60.2933 140.88 60.72C140.533 61.1467 140.36 61.64 140.36 62.2C140.36 62.76 140.587 63.24 141.04 63.64C141.52 64.0133 142.387 64.3333 143.64 64.6L148.28 65.6C150.867 66.16 152.8 67.08 154.08 68.36C155.36 69.64 156 71.3067 156 73.36C156 74.7467 155.72 76 155.16 77.12C154.6 78.24 153.8 79.2 152.76 80C151.72 80.7733 150.467 81.3733 149 81.8C147.533 82.2267 145.88 82.44 144.04 82.44ZM169.349 82.36C168.175 82.36 167.269 82.04 166.629 81.4C165.989 80.7333 165.669 79.8133 165.669 78.64V59.8H159.389C158.402 59.8 157.642 59.5467 157.109 59.04C156.602 58.5067 156.349 57.76 156.349 56.8C156.349 55.8133 156.602 55.0667 157.109 54.56C157.642 54.0533 158.402 53.8 159.389 53.8H179.309C180.295 53.8 181.042 54.0533 181.549 54.56C182.082 55.0667 182.349 55.8133 182.349 56.8C182.349 57.76 182.082 58.5067 181.549 59.04C181.042 59.5467 180.295 59.8 179.309 59.8H173.029V78.64C173.029 79.8133 172.722 80.7333 172.109 81.4C171.495 82.04 170.575 82.36 169.349 82.36ZM196.73 82.44C193.877 82.44 191.37 81.84 189.21 80.64C187.05 79.4133 185.37 77.7067 184.17 75.52C182.997 73.3333 182.41 70.7867 182.41 67.88C182.41 65.6933 182.744 63.7067 183.41 61.92C184.104 60.1333 185.077 58.6 186.33 57.32C187.61 56.04 189.13 55.0667 190.89 54.4C192.65 53.7067 194.597 53.36 196.73 53.36C199.584 53.36 202.077 53.96 204.21 55.16C206.37 56.36 208.05 58.0533 209.25 60.24C210.45 62.4 211.05 64.9467 211.05 67.88C211.05 70.0667 210.704 72.0533 210.01 73.84C209.344 75.6267 208.37 77.1733 207.09 78.48C205.837 79.76 204.33 80.7467 202.57 81.44C200.81 82.1067 198.864 82.44 196.73 82.44ZM196.73 76.28C198.144 76.28 199.344 75.9467 200.33 75.28C201.317 74.6133 202.077 73.6533 202.61 72.4C203.144 71.1467 203.41 69.64 203.41 67.88C203.41 65.24 202.824 63.1867 201.65 61.72C200.477 60.2533 198.837 59.52 196.73 59.52C195.344 59.52 194.144 59.8533 193.13 60.52C192.144 61.16 191.384 62.1067 190.85 63.36C190.317 64.5867 190.05 66.0933 190.05 67.88C190.05 70.52 190.637 72.5867 191.81 74.08C192.984 75.5467 194.624 76.28 196.73 76.28ZM219.076 82.36C217.903 82.36 216.996 82.04 216.356 81.4C215.716 80.7333 215.396 79.8133 215.396 78.64V57.52C215.396 56.32 215.716 55.4 216.356 54.76C217.023 54.12 217.943 53.8 219.116 53.8H228.956C232.156 53.8 234.623 54.5867 236.356 56.16C238.116 57.7067 238.996 59.8667 238.996 62.64C238.996 64.4267 238.596 65.9867 237.796 67.32C237.023 68.6267 235.889 69.64 234.396 70.36C232.929 71.0533 231.116 71.4 228.956 71.4L229.276 70.68H231.196C232.343 70.68 233.356 70.96 234.236 71.52C235.116 72.0533 235.849 72.88 236.436 74L238.436 77.6C238.863 78.3733 239.063 79.1333 239.036 79.88C239.009 80.6 238.716 81.2 238.156 81.68C237.623 82.1333 236.836 82.36 235.796 82.36C234.756 82.36 233.903 82.1467 233.236 81.72C232.596 81.2933 232.023 80.6267 231.516 79.72L227.876 73.04C227.556 72.4533 227.143 72.0533 226.636 71.84C226.156 71.6 225.596 71.48 224.956 71.48H222.756V78.64C222.756 79.8133 222.449 80.7333 221.836 81.4C221.223 82.04 220.303 82.36 219.076 82.36ZM222.756 66.28H227.636C229.049 66.28 230.129 66 230.876 65.44C231.623 64.88 231.996 64.0133 231.996 62.84C231.996 61.72 231.623 60.88 230.876 60.32C230.129 59.7333 229.049 59.44 227.636 59.44H222.756V66.28ZM247.478 82C246.225 82 245.265 81.68 244.598 81.04C243.958 80.3733 243.638 79.4267 243.638 78.2V57.6C243.638 56.3733 243.958 55.44 244.598 54.8C245.265 54.1333 246.225 53.8 247.478 53.8H261.038C261.998 53.8 262.718 54.04 263.198 54.52C263.678 55 263.918 55.6933 263.918 56.6C263.918 57.5333 263.678 58.2533 263.198 58.76C262.718 59.24 261.998 59.48 261.038 59.48H250.678V64.84H260.158C261.091 64.84 261.798 65.08 262.278 65.56C262.785 66.04 263.038 66.7467 263.038 67.68C263.038 68.6133 262.785 69.32 262.278 69.8C261.798 70.28 261.091 70.52 260.158 70.52H250.678V76.32H261.038C261.998 76.32 262.718 76.5733 263.198 77.08C263.678 77.56 263.918 78.2533 263.918 79.16C263.918 80.0933 263.678 80.8 263.198 81.28C262.718 81.76 261.998 82 261.038 82H247.478Z" fill="white"/>
</svg>
