<svg width="79" height="76" viewBox="0 0 79 76" fill="none" xmlns="http://www.w3.org/2000/svg">
<path d="M0.0265198 20.2748L1.06011 14.6251C1.20195 13.8499 1.87687 13.2875 2.66348 13.2875C2.66674 13.2875 2.66837 13.2875 2.67163 13.2875C3.46231 13.2908 4.1348 13.8605 4.27011 14.639L13.5683 68.2096L60.9562 68.2113C62.0917 68.2113 63.1424 67.7417 63.9176 66.8899C64.8061 65.911 65.3009 64.451 65.1818 63.1998C64.8346 60.1846 62.6549 57.9952 60.0025 57.9952H20.4554C19.6607 57.9952 18.9808 57.4221 18.8488 56.6372L9.59049 1.90252C9.51061 1.42893 9.64266 0.944741 9.95322 0.57793C10.2622 0.21112 10.7178 0 11.1971 0H50.7132C59.7278 0 68.528 7.33132 70.3319 16.3369L78.775 57.6781C79.5347 62.5184 78.3561 67.0684 75.4558 70.4928C72.6077 73.8552 68.4318 75.7072 63.6967 75.7072L62.9419 75.7048C62.9272 75.7048 62.9133 75.7056 62.897 75.7056C60.375 75.708 12.1427 75.7113 11.6397 75.7113C9.81465 75.7113 8.25938 74.4038 7.93658 72.5673L0.0191879 20.8128C-0.00934178 20.6351 -0.00527047 20.4517 0.0265198 20.2748Z" fill="white"/>
</svg>
