<svg width="18" height="20" viewBox="0 0 18 20" fill="none" xmlns="http://www.w3.org/2000/svg">
<path d="M4 5C4 5.55228 4.44772 6 5 6C5.55228 6 6 5.55228 6 5H4ZM12 5C12 5.55228 12.4477 6 13 6C13.5523 6 14 5.55228 14 5H12ZM6.09202 18.782L6.54601 17.891L6.09202 18.782ZM5.21799 17.908L6.10899 17.454L5.21799 17.908ZM12.782 17.908L11.891 17.454L12.782 17.908ZM11.908 18.782L11.454 17.891L11.908 18.782ZM11.908 11.218L11.454 12.109L11.908 11.218ZM12.782 12.092L11.891 12.546L12.782 12.092ZM6.09202 11.218L6.54601 12.109L6.09202 11.218ZM5.21799 12.092L6.10899 12.546L5.21799 12.092ZM13.3124 7.31247C12.7601 7.31247 12.3124 7.76018 12.3124 8.31247C12.3124 8.86475 12.7601 9.31247 13.3124 9.31247V7.31247ZM13.6874 9.31247C14.2397 9.31247 14.6874 8.86475 14.6874 8.31247C14.6874 7.76018 14.2397 7.31247 13.6874 7.31247V9.31247ZM13.3124 7.68747C12.7601 7.68747 12.3124 8.13518 12.3124 8.68747C12.3124 9.23975 12.7601 9.68747 13.3124 9.68747V7.68747ZM13.6874 9.68747C14.2397 9.68747 14.6874 9.23975 14.6874 8.68747C14.6874 8.13518 14.2397 7.68747 13.6874 7.68747V9.68747ZM3 6H15V4H3V6ZM16 7V12H18V7H16ZM2 12V7H0V12H2ZM15 13H12.2V15H15V13ZM5.8 13H3V15H5.8V13ZM0 12C0 13.6569 1.34314 15 3 15V13C2.44771 13 2 12.5523 2 12H0ZM16 12C16 12.5523 15.5523 13 15 13V15C16.6569 15 18 13.6569 18 12H16ZM15 6C15.5523 6 16 6.44772 16 7H18C18 5.34315 16.6569 4 15 4V6ZM3 4C1.34315 4 0 5.34315 0 7H2C2 6.44772 2.44772 6 3 6V4ZM6 5V3H4V5H6ZM7 2H11V0H7V2ZM12 3V5H14V3H12ZM11 2C11.5523 2 12 2.44772 12 3H14C14 1.34315 12.6569 0 11 0V2ZM6 3C6 2.44772 6.44772 2 7 2V0C5.34315 0 4 1.34315 4 3H6ZM8.2 12H9.8V10H8.2V12ZM12 14.2V15.8H14V14.2H12ZM9.8 18H8.2V20H9.8V18ZM6 15.8V14.2H4V15.8H6ZM8.2 18C7.62345 18 7.25117 17.9992 6.96784 17.9761C6.69617 17.9539 6.59545 17.9162 6.54601 17.891L5.63803 19.673C6.01641 19.8658 6.40963 19.9371 6.80497 19.9694C7.18864 20.0008 7.65645 20 8.2 20V18ZM4 15.8C4 16.3436 3.99922 16.8114 4.03057 17.195C4.06287 17.5904 4.13419 17.9836 4.32698 18.362L6.10899 17.454C6.0838 17.4045 6.04612 17.3038 6.02393 17.0322C6.00078 16.7488 6 16.3766 6 15.8H4ZM6.54601 17.891C6.35785 17.7951 6.20487 17.6422 6.10899 17.454L4.32698 18.362C4.6146 18.9265 5.07354 19.3854 5.63803 19.673L6.54601 17.891ZM12 15.8C12 16.3766 11.9992 16.7488 11.9761 17.0322C11.9539 17.3038 11.9162 17.4045 11.891 17.454L13.673 18.362C13.8658 17.9836 13.9371 17.5904 13.9694 17.195C14.0008 16.8114 14 16.3436 14 15.8H12ZM9.8 20C10.3436 20 10.8114 20.0008 11.195 19.9694C11.5904 19.9371 11.9836 19.8658 12.362 19.673L11.454 17.891C11.4045 17.9162 11.3038 17.9539 11.0322 17.9761C10.7488 17.9992 10.3766 18 9.8 18V20ZM11.891 17.454C11.7951 17.6422 11.6422 17.7951 11.454 17.891L12.362 19.673C12.9265 19.3854 13.3854 18.9265 13.673 18.362L11.891 17.454ZM9.8 12C10.3766 12 10.7488 12.0008 11.0322 12.0239C11.3038 12.0461 11.4045 12.0838 11.454 12.109L12.362 10.327C11.9836 10.1342 11.5904 10.0629 11.195 10.0306C10.8114 9.99922 10.3436 10 9.8 10V12ZM14 14.2C14 13.6564 14.0008 13.1886 13.9694 12.805C13.9371 12.4096 13.8658 12.0164 13.673 11.638L11.891 12.546C11.9162 12.5955 11.9539 12.6962 11.9761 12.9678C11.9992 13.2512 12 13.6234 12 14.2H14ZM11.454 12.109C11.6422 12.2049 11.7951 12.3578 11.891 12.546L13.673 11.638C13.3854 11.0735 12.9265 10.6146 12.362 10.327L11.454 12.109ZM8.2 10C7.65645 10 7.18864 9.99922 6.80497 10.0306C6.40963 10.0629 6.01641 10.1342 5.63803 10.327L6.54601 12.109C6.59545 12.0838 6.69617 12.0461 6.96784 12.0239C7.25117 12.0008 7.62345 12 8.2 12V10ZM6 14.2C6 13.6234 6.00078 13.2512 6.02393 12.9678C6.04612 12.6962 6.0838 12.5955 6.10899 12.546L4.32698 11.638C4.13419 12.0164 4.06287 12.4096 4.03057 12.805C3.99922 13.1886 4 13.6564 4 14.2H6ZM5.63803 10.327C5.07354 10.6146 4.6146 11.0735 4.32698 11.638L6.10899 12.546C6.20487 12.3578 6.35785 12.2049 6.54601 12.109L5.63803 10.327ZM13 8.5C13 8.22386 13.2239 8 13.5 8V10C14.3284 10 15 9.32843 15 8.5H13ZM13.5 8C13.7761 8 14 8.22386 14 8.5H12C12 9.32843 12.6716 10 13.5 10V8ZM14 8.5C14 8.77614 13.7761 9 13.5 9V7C12.6716 7 12 7.67157 12 8.5H14ZM13.5 9C13.2239 9 13 8.77614 13 8.5H15C15 7.67157 14.3284 7 13.5 7V9ZM13.3124 9.31247H13.6874V7.31247H13.3124V9.31247ZM13.3124 9.68747H13.6874V7.68747H13.3124V9.68747Z" fill="#0C9000"/>
</svg>
