<svg width="30" height="30" viewBox="0 0 30 30" fill="none" xmlns="http://www.w3.org/2000/svg">
<circle cx="15" cy="15" r="15" fill="white"/>
<path d="M10.4549 16.8239H12.006L12.9247 18.0149L13.5803 18.7905L15.1545 20.8125H13.4925L12.4215 19.4553L11.9645 18.8089L10.4549 16.8239ZM15.3807 15.2727C15.3807 16.2914 15.1899 17.1639 14.8082 17.8903C14.4297 18.6135 13.9126 19.1675 13.2571 19.5522C12.6046 19.9369 11.8645 20.1293 11.0366 20.1293C10.2087 20.1293 9.46697 19.9369 8.81143 19.5522C8.15897 19.1644 7.64193 18.6089 7.2603 17.8857C6.88175 17.1593 6.69247 16.2884 6.69247 15.2727C6.69247 14.254 6.88175 13.383 7.2603 12.6598C7.64193 11.9335 8.15897 11.378 8.81143 10.9933C9.46697 10.6085 10.2087 10.4162 11.0366 10.4162C11.8645 10.4162 12.6046 10.6085 13.2571 10.9933C13.9126 11.378 14.4297 11.9335 14.8082 12.6598C15.1899 13.383 15.3807 14.254 15.3807 15.2727ZM13.6587 15.2727C13.6587 14.5556 13.5464 13.9509 13.3217 13.4585C13.1001 12.9629 12.7924 12.589 12.3984 12.3366C12.0045 12.0812 11.5505 11.9535 11.0366 11.9535C10.5226 11.9535 10.0687 12.0812 9.67472 12.3366C9.28078 12.589 8.97147 12.9629 8.7468 13.4585C8.52521 13.9509 8.41442 14.5556 8.41442 15.2727C8.41442 15.9898 8.52521 16.5961 8.7468 17.0916C8.97147 17.584 9.28078 17.958 9.67472 18.2134C10.0687 18.4658 10.5226 18.592 11.0366 18.592C11.5505 18.592 12.0045 18.4658 12.3984 18.2134C12.7924 17.958 13.1001 17.584 13.3217 17.0916C13.5464 16.5961 13.6587 15.9898 13.6587 15.2727ZM17.0126 20V10.5455H18.7253V18.5643H22.8894V20H17.0126Z" fill="black"/>
</svg>
