<svg width="22" height="22" viewBox="0 0 22 22" fill="none" xmlns="http://www.w3.org/2000/svg">
<path d="M11 22C4.92487 22 -5.87285e-08 17.0751 -1.31174e-07 11V11C-2.03619e-07 4.92487 4.92487 -5.87285e-08 11 -1.31174e-07V-1.31174e-07C17.0751 -2.03619e-07 22 4.92487 22 11V11C22 17.0751 17.0751 22 11 22V22Z" fill="#FF6D03"/>
<path d="M5.11957 7.14263L5.53477 8.9411C5.659 9.47923 6.19596 9.81476 6.73409 9.69053L8.53256 9.27533" stroke="white" stroke-width="1.5" stroke-linecap="round"/>
<path d="M6.35392 8.80892C6.84873 7.95188 7.57091 7.24837 8.4406 6.77617C9.31029 6.30396 10.2936 6.08146 11.2819 6.13325C12.2702 6.18504 13.2248 6.50912 14.0404 7.06964C14.856 7.63017 15.5007 8.40531 15.9032 9.30937" stroke="white" stroke-width="1.5" stroke-linecap="round"/>
<path d="M15.6485 14.175C15.1537 15.032 14.4315 15.7355 13.5618 16.2077C12.6921 16.6799 11.7088 16.9024 10.7205 16.8506C9.73228 16.7988 8.77759 16.4748 7.96202 15.9142C7.14645 15.3537 6.50177 14.5786 6.09926 13.6745" stroke="white" stroke-width="1.5" stroke-linecap="round"/>
<path d="M16.8829 15.8417L16.4677 14.0433C16.3434 13.5051 15.8065 13.1696 15.2684 13.2938L13.4699 13.709" stroke="white" stroke-width="1.5" stroke-linecap="round"/>
</svg>
